name GIL01_slow3Moments.mot
datacolumns 7
datarows 47
range 0.20833339 0.59166670
endheader

                time	          RHipMoment	          LHipMoment	         RKneeMoment	         LKneeMoment	        RAnkleMoment	        LAnkleMoment	
          0.20833339	         48.19016647	        129.50785828	        -35.56014633	       -273.45309448	        -10.35890007	       -166.95411682	
          0.21666671	         36.73654556	        116.87023926	        -35.62298965	       -290.13403320	        -11.19305420	       -161.98782349	
          0.22500005	         23.35935020	         98.82154846	        -34.32940292	       -306.75592041	        -11.46543026	       -155.68663025	
          0.23333338	         -1.21733344	         99.81407928	        -26.66977119	       -330.51116943	        -11.32483482	       -148.31127930	
          0.24166672	        -42.19727325	         99.23740387	        -12.03641701	       -354.59741211	        -10.82239532	       -139.67955017	
          0.25000006	        -77.31623840	         88.69542694	          1.53970218	       -373.10958862	         -9.66021538	       -130.82702637	
          0.25833338	        -98.18389130	         81.57942963	         10.83006859	       -387.96606445	         -8.13217831	       -121.25226593	
          0.26666671	       -107.73458099	         72.94108582	         14.92733097	       -395.24749756	         -7.14818001	       -111.82826996	
          0.27500004	       -110.75030518	         66.14821625	         15.33606339	       -398.84674072	         -6.75232172	       -101.88603973	
          0.28333339	       -105.77959442	         58.08118820	         10.86757088	       -400.10235596	         -6.67457724	        -89.90485382	
          0.29166672	        -79.16072083	         37.10482788	         -4.29612780	       -392.95779419	         -6.98694515	        -78.10691833	
          0.30000004	        -50.85352707	          4.93019962	        -20.15277672	       -380.12429810	         -7.36141109	        -66.96205139	
          0.30833340	        -40.68671417	        -26.45607185	        -26.52190781	       -366.63809204	         -7.51414537	        -56.95063782	
          0.31666672	        -29.98615074	        -40.13227844	        -30.83975601	       -356.89355469	         -7.48825121	        -49.16713333	
          0.32500005	         -9.76185226	        -41.51845932	        -38.11223984	       -349.15634155	         -7.41323471	        -41.45337296	
          0.33333337	         -0.49267393	        -51.36901855	        -42.06785202	       -337.33221436	         -7.47138500	        -33.74665451	
          0.34166670	        -11.36692429	        -69.71795654	        -39.96827698	       -323.12286377	         -7.38487768	        -26.33626366	
          0.35000005	        -27.59322548	        -79.82463074	        -36.57623291	       -310.54891968	         -7.12360716	        -19.72498322	
          0.35833338	        -39.57936859	        -75.19433594	        -35.78492355	       -302.23980713	         -7.27718258	        -13.61272526	
          0.36666673	        -40.41073990	        -72.70474243	        -39.42810822	       -294.73696899	         -7.94006920	         -7.12651157	
          0.37500006	        -37.79970169	        -91.95620728	        -41.91268158	       -280.87066650	         -8.69412231	         -2.43753672	
          0.38333338	        -40.60237122	       -107.58568573	        -41.40690994	       -269.82818604	         -9.36959648	          1.36508071	
          0.39166671	        -43.42429733	       -103.50371552	        -42.02412033	       -268.45571899	        -10.07456589	          7.03916168	
          0.40000004	        -34.76056290	        -98.71923828	        -45.68519974	       -268.96273804	        -10.73849106	         11.68107700	
          0.40833336	        -23.54711151	       -100.22860718	        -49.78875732	       -270.62704468	        -11.18089771	         16.07863235	
          0.41666672	        -23.80767632	        -97.45345306	        -51.26622391	       -274.78713989	        -11.32176971	         20.60816765	
          0.42500004	        -38.29218674	        -88.58769989	        -48.37091064	       -280.80691528	        -11.30532455	         24.46795654	
          0.43333340	        -50.33504105	        -80.60031891	        -45.48056030	       -289.69723511	        -11.29225349	         29.46819115	
          0.44166672	        -52.84379578	        -82.25102234	        -44.16373062	       -295.95089722	        -11.23315430	         34.43664551	
          0.45000005	        -58.89899445	        -86.20574951	        -40.85953140	       -302.43359375	        -11.29750156	         40.56263351	
          0.45833337	        -67.27944946	        -84.88585663	        -37.15604401	       -310.35763550	        -11.59068298	         46.07123184	
          0.46666673	        -65.77438354	        -80.95360565	        -36.74120712	       -320.27883911	        -11.81837845	         51.46240616	
          0.47500005	        -52.80305099	        -77.71675110	        -40.27427292	       -331.61120605	        -11.89302540	         57.45613480	
          0.48333338	        -48.25766373	        -85.05516052	        -41.49035263	       -340.72421265	        -11.85567284	         64.23884583	
          0.49166670	        -53.28205109	        -90.28221130	        -39.33098602	       -348.45675659	        -11.73060226	         72.24452209	
          0.50000006	        -33.72507095	        -84.73782349	        -45.01804352	       -355.72521973	        -11.68472958	         82.18307495	
          0.50833338	        -18.88257408	        -63.28195190	        -48.73423767	       -369.28024292	        -11.60166168	         93.18322754	
          0.51666671	        -21.94551849	        -62.72561646	        -46.02805710	       -375.37091064	        -11.56143951	        104.88845062	
          0.52500004	        -29.07334709	        -65.69218445	        -42.28501892	       -380.96087646	        -11.81528854	        118.05289459	
          0.53333342	        -24.08082581	        -80.27580261	        -43.23287582	       -382.23696899	        -12.07191372	        132.16908264	
          0.54166675	        -24.64138985	        -80.94964600	        -42.37388992	       -388.29278564	        -11.95613003	        145.47682190	
          0.55000007	        -32.66271210	        -98.46164703	        -38.54272461	       -389.87234497	        -11.56213379	        159.15190125	
          0.55833340	        -49.99580383	       -116.61263275	        -31.02447510	       -392.06866455	        -11.03409958	        173.08686829	
          0.56666672	        -46.30705261	       -123.48410797	        -30.43471336	       -393.51037598	        -10.71656799	        187.60993958	
          0.57500005	        -34.42739868	       -100.69575500	        -32.77577972	       -402.65292358	        -10.57516861	        201.72621155	
          0.58333337	        -31.26078987	        -97.16675568	        -31.77098465	       -404.21609497	        -10.35678577	        217.23405457	
          0.59166670	        -30.16269875	       -106.24535370	        -29.95960808	       -399.52539063	        -10.27645016	        232.88681030	
